<svg xmlns="http://www.w3.org/2000/svg" id="calculator" width="48" height="48" viewBox="0 0 48 48"><defs><style>.vi-accent,.vi-primary{fill-rule:evenodd}.vi-primary{fill:#ff6e6e}.vi-accent{fill:#0c0058}</style></defs><path d="M38,43H11V5H38V43Z" class="vi-primary"/><path d="M15,9H34v7H15V9Zm2.5,11A2.5,2.5,0,1,1,15,22.5,2.5,2.5,0,0,1,17.5,20Zm7,0A2.5,2.5,0,1,1,22,22.5,2.5,2.5,0,0,1,24.5,20Zm7,0A2.5,2.5,0,1,1,29,22.5,2.5,2.5,0,0,1,31.5,20Zm-14,7A2.5,2.5,0,1,1,15,29.5,2.5,2.5,0,0,1,17.5,27Zm7,0A2.5,2.5,0,1,1,22,29.5,2.5,2.5,0,0,1,24.5,27Zm7,0A2.5,2.5,0,1,1,29,29.5,2.5,2.5,0,0,1,31.5,27Zm-14,7A2.5,2.5,0,1,1,15,36.5,2.5,2.5,0,0,1,17.5,34Zm7,0A2.5,2.5,0,1,1,22,36.5,2.5,2.5,0,0,1,24.5,34Zm7,0A2.5,2.5,0,1,1,29,36.5,2.5,2.5,0,0,1,31.5,34Z" class="vi-accent"/></svg>