<svg xmlns="http://www.w3.org/2000/svg" id="camera" width="48" height="48" viewBox="0 0 48 48"><defs><style>.vi-accent,.vi-primary{stroke:#fff;stroke-linecap:round;stroke-width:0}.vi-primary{fill:#ff6e6e}.vi-accent{fill:#0c0058}</style></defs><rect width="36" height="22" x="6" y="13" class="vi-primary"/><path fill-rule="evenodd" d="M24,17a7,7,0,1,1-7,7A7,7,0,0,1,24,17Zm0,4a3,3,0,1,1-3,3A3,3,0,0,1,24,21Zm11.5-4A1.5,1.5,0,1,1,34,18.5,1.5,1.5,0,0,1,35.5,17ZM10,13l4-4h6l4,4H10Z" class="vi-accent"/></svg>