<svg xmlns="http://www.w3.org/2000/svg" id="equaliser" width="48" height="48" viewBox="0 0 48 48"><defs><style>.vi-primary{fill:#ff6e6e}.vi-accent,.vi-primary,.vi-prop{stroke:#fff;stroke-linecap:round;stroke-width:0;fill-rule:evenodd}.vi-accent{fill:#0c0058}.vi-prop{fill:#fff}</style></defs><path d="M8,36V32H40v4H8ZM8,22H40v4H8V22ZM8,12H40v4H8V12Z" class="vi-primary"/><path d="M30,29a5,5,0,1,1,5-5A5,5,0,0,1,30,29ZM19,19a5,5,0,1,1,5-5A5,5,0,0,1,19,19Zm3,15a5,5,0,1,1-5-5A5,5,0,0,1,22,34Z" class="vi-accent"/><path d="M19,12a2,2,0,1,1-2,2A2,2,0,0,1,19,12ZM30,22a2,2,0,1,1-2,2A2,2,0,0,1,30,22ZM17,32a2,2,0,1,1-2,2A2,2,0,0,1,17,32Z" class="vi-prop"/></svg>