<svg xmlns="http://www.w3.org/2000/svg" id="refresh" width="48" height="48" viewBox="0 0 48 48"><defs><style>.vi-accent,.vi-primary{fill-rule:evenodd}.vi-primary{fill:#ff6e6e}.vi-accent{fill:#0c0058}</style></defs><path d="M15.518,23.936A8.576,8.576,0,0,0,24,32.606V34.94l-0.944,4.286A15.186,15.186,0,0,1,9,23.936,14.953,14.953,0,0,1,21,9h2l0.048,6.323A8.6,8.6,0,0,0,15.518,23.936Z" class="vi-accent"/><path d="M24,39.275c-0.319,0-.63-0.029-0.944-0.049L24,34.94V32.606a8.672,8.672,0,0,0,0-17.34,8.346,8.346,0,0,0-.949.058L23,13s-0.658-4.4,1-4.4A15.172,15.172,0,0,1,39,23.936,15.172,15.172,0,0,1,24,39.275Z" class="vi-primary"/><path d="M26.005,42V28L19,35Z" class="vi-primary"/><path d="M21.989,6V19l6.024-6.494Z" class="vi-accent"/></svg>