<svg xmlns="http://www.w3.org/2000/svg" id="server" width="48" height="48" viewBox="0 0 48 48"><defs><style>.vi-primary{fill:#ff6e6e}.vi-accent,.vi-primary,.vi-prop{fill-rule:evenodd}.vi-accent{fill:#0c0058}.vi-prop{fill:#fff}</style></defs><path d="M11,14H37v7H11V14Zm0,14H37v7H11V28Z" class="vi-primary"/><path d="M11,7H37v7H11V7Zm0,14H37v7H11V21Zm0,14H37v7H11V35Z" class="vi-accent"/><path d="M14.5,37A1.5,1.5,0,1,1,13,38.5,1.5,1.5,0,0,1,14.5,37Zm0-7A1.5,1.5,0,1,1,13,31.5,1.5,1.5,0,0,1,14.5,30Zm0-7A1.5,1.5,0,1,1,13,24.5,1.5,1.5,0,0,1,14.5,23Zm0-7A1.5,1.5,0,1,1,13,17.5,1.5,1.5,0,0,1,14.5,16Zm0-7A1.5,1.5,0,1,1,13,10.5,1.5,1.5,0,0,1,14.5,9Z" class="vi-prop"/></svg>