<svg xmlns="http://www.w3.org/2000/svg" id="van" width="48" height="48" viewBox="0 0 48 48"><defs><style>.vi-primary{fill:#ff6e6e}.vi-accent{fill:#0c0058}.vi-prop{fill:#fff}</style></defs><path d="M4,11V33.012H29.994V11H4Z" class="vi-primary"/><path d="M29.994,17.014H38.32l5.68,6v10H29.994v-16Z" class="vi-accent"/><circle cx="12" cy="33" r="5" class="vi-accent"/><circle cx="37" cy="33" r="5" class="vi-primary"/><path d="M12,31a2,2,0,1,1-2,2A2,2,0,0,1,12,31Zm25,0a2,2,0,1,1-2,2A2,2,0,0,1,37,31ZM36,20l4,4H33V20h3Z" class="vi-prop"/></svg>